<svg width="1512" height="913" viewBox="0 0 1512 913" fill="none" xmlns="http://www.w3.org/2000/svg">
<path opacity="0.2" d="M1502.22 0.971938C1476.27 13.0412 1450.32 25.1104 1424.34 37.1593C1398.39 25.0901 1372.41 13.0209 1346.46 0.971938L1348.07 0.221415C1346.98 -0.12342 1346.03 -0.062567 1345.2 0.38369C1344.36 -0.062567 1343.41 -0.12342 1342.32 0.221415L1343.94 0.971938C1317.98 13.0412 1292.03 25.1104 1266.05 37.1593C1240.1 25.0901 1214.15 13.0209 1188.17 0.971938L1189.75 0.221415C1188.67 -0.12342 1187.71 -0.062567 1186.88 0.38369C1186.05 -0.062567 1185.09 -0.103136 1184.01 0.221415L1185.6 0.971938C1159.64 13.0412 1133.69 25.1104 1107.71 37.1593C1081.76 25.0901 1055.78 13.0209 1029.83 0.971938L1031.42 0.221415C1030.33 -0.12342 1029.38 -0.062567 1028.57 0.38369C1027.74 -0.062567 1026.78 -0.103136 1025.7 0.221415L1027.28 0.971938C1001.33 13.0412 975.378 25.1104 949.4 37.1593C923.447 25.0901 897.469 13.0209 871.516 0.971938L873.103 0.221415C872.02 -0.12342 871.062 -0.062567 870.256 0.38369C869.425 -0.062567 868.492 -0.103136 867.409 0.221415L868.996 0.971938C843.043 13.0412 817.09 25.1104 791.112 37.1593C765.159 25.0901 739.206 13.0209 713.228 0.971938L714.815 0.221415C713.732 -0.12342 712.774 -0.062567 711.968 0.38369C711.137 -0.062567 710.204 -0.103136 709.121 0.221415L710.708 0.971938C684.755 13.0412 658.802 25.1104 632.824 37.1593C606.871 25.0901 580.918 13.0209 554.94 0.971938L556.527 0.241699C555.444 -0.103136 554.487 -0.0422825 553.68 0.403975C552.849 -0.0422825 551.916 -0.0828514 550.833 0.241699L552.42 0.971938C526.467 13.0412 500.514 25.1104 474.536 37.1593C448.583 25.0901 422.63 13.0209 396.652 0.971938L398.24 0.241699C397.156 -0.103136 396.199 -0.0422825 395.392 0.403975C394.561 -0.0422825 393.628 -0.0828514 392.545 0.241699L394.132 0.971938C368.179 13.0412 342.226 25.1104 316.248 37.1593C290.295 25.0901 264.317 13.0209 238.364 0.971938L239.952 0.241699C238.868 -0.103136 237.936 -0.0422825 237.104 0.38369C236.273 -0.062567 235.341 -0.103136 234.257 0.241699L235.844 0.971938C209.892 13.0412 183.939 25.1104 157.96 37.1593C132.007 25.0901 106.029 13.0209 80.0763 0.971938L81.6637 0.241699C80.5802 -0.103136 79.6479 -0.0422825 78.8164 0.38369C78.0101 -0.062567 77.0526 -0.103136 75.9691 0.241699L77.5565 0.971938C51.8304 13.0006 25.9278 25.0495 0 37.0985V38.3764C25.9278 50.4254 51.8304 62.4743 77.7581 74.5232C51.8304 86.5722 25.9278 98.6211 0 110.67V111.948C25.9278 123.997 51.8304 136.046 77.7581 148.075C51.8304 160.123 25.9278 172.172 0 184.221V185.499C25.9278 197.548 51.8556 209.597 77.7581 221.646C51.8556 233.695 25.9278 245.744 0 257.793V259.071C25.9278 271.12 51.8556 283.169 77.7581 295.218C51.8556 307.267 25.9278 319.316 0 331.365V332.642C25.9278 344.691 51.8556 356.74 77.7581 368.789C51.8556 380.818 25.9278 392.867 0 404.916V406.194C25.9278 418.243 51.8556 430.292 77.7833 442.341C51.8556 454.39 25.9278 466.439 0 478.487V479.745C25.9278 491.794 51.8556 503.843 77.7833 515.892C51.8556 527.961 25.9278 540.01 0 552.059V553.317C25.9278 565.366 51.8556 577.415 77.7833 589.464C51.8556 601.512 25.9278 613.561 0 625.61V626.868C25.9278 638.917 51.8556 650.966 77.7833 663.015C51.8556 675.084 25.9278 687.133 0 699.182V700.44C25.9278 712.488 51.8556 724.537 77.7833 736.586C51.8556 748.635 25.9278 760.705 0 772.753V774.011C25.9278 786.06 51.8556 798.109 77.7833 810.158C51.8556 822.207 25.9278 834.256 0 846.305V847.562C25.9278 859.611 51.8556 871.66 77.7833 883.709C56.769 893.466 35.7546 903.243 14.7403 913C36.4349 904.886 57.928 894.095 79.0432 884.298C100.133 894.115 121.651 904.886 143.346 913C122.332 903.243 101.317 893.466 80.303 883.709C106.256 871.64 132.209 859.571 158.187 847.522C184.14 859.591 210.118 871.66 236.071 883.709C215.057 893.466 194.043 903.243 173.053 913C194.748 904.886 216.241 894.095 237.356 884.298C258.446 894.095 279.965 904.886 301.659 913C280.645 903.243 259.63 893.466 238.616 883.709C264.569 871.64 290.522 859.571 316.5 847.522C342.453 859.591 368.431 871.66 394.384 883.709C373.37 893.466 352.356 903.243 331.367 913C353.061 904.886 374.554 894.095 395.669 884.298C416.759 894.095 438.278 904.886 459.947 913C438.933 903.243 417.918 893.466 396.929 883.709C422.882 871.64 448.835 859.571 474.813 847.522C500.766 859.591 526.745 871.66 552.698 883.709C531.683 893.466 510.669 903.243 489.68 913C511.374 904.886 532.867 894.095 553.957 884.298C575.047 894.095 596.54 904.886 618.235 913C597.221 903.243 576.232 893.466 555.217 883.709C581.17 871.64 607.123 859.571 633.101 847.522C659.054 859.591 685.007 871.66 710.985 883.709C689.971 893.466 668.982 903.243 647.968 913C669.662 904.886 691.155 894.095 712.245 884.298C733.335 894.095 754.828 904.886 776.523 913C755.509 903.243 734.52 893.466 713.505 883.709C739.458 871.64 765.411 859.571 791.389 847.522C817.342 859.591 843.32 871.66 869.273 883.709C848.259 893.466 827.27 903.243 806.256 913C827.95 904.886 849.443 894.095 870.533 884.298C891.623 894.095 913.116 904.886 934.811 913C913.797 903.243 892.807 893.466 871.793 883.709C897.746 871.64 923.699 859.571 949.677 847.522C975.63 859.591 1001.61 871.66 1027.56 883.709C1006.55 893.466 985.558 903.243 964.543 913C986.238 904.886 1007.73 894.095 1028.82 884.298C1049.91 894.095 1071.4 904.886 1093.1 913C1072.08 903.243 1051.1 893.466 1030.08 883.709C1056.03 871.64 1081.99 859.571 1107.97 847.522C1133.92 859.591 1159.9 871.66 1185.85 883.709C1164.83 893.466 1143.85 903.243 1122.83 913C1144.53 904.886 1166.02 894.095 1187.11 884.298C1208.2 894.095 1229.69 904.886 1251.39 913C1230.37 903.243 1209.38 893.466 1188.37 883.709C1214.32 871.64 1240.27 859.571 1266.25 847.522C1292.21 859.591 1318.16 871.66 1344.14 883.709C1323.12 893.466 1302.13 903.243 1281.12 913C1302.81 904.886 1324.31 894.095 1345.4 884.298C1366.49 894.095 1387.98 904.886 1409.67 913C1388.66 903.243 1367.67 893.466 1346.66 883.709C1372.61 871.64 1398.56 859.571 1424.54 847.522C1450.49 859.591 1476.47 871.66 1502.43 883.709C1481.41 893.466 1460.42 903.243 1439.41 913C1461.1 904.886 1482.6 894.095 1503.69 884.298L1511.97 888.152V886.975L1504.94 883.709L1511.97 880.443V879.267L1503.69 883.121C1477.73 871.052 1451.75 858.983 1425.8 846.934C1451.75 834.864 1477.71 822.795 1503.69 810.746L1511.97 814.6V813.424L1504.94 810.158L1511.97 806.892V805.716L1503.69 809.57C1477.73 797.5 1451.75 785.431 1425.8 773.382C1451.75 761.313 1477.71 749.244 1503.69 737.195L1512 741.049V739.872L1504.94 736.607L1512 733.341V732.164L1503.69 736.018C1477.73 723.949 1451.75 711.88 1425.8 699.831C1451.75 687.762 1477.71 675.693 1503.69 663.644L1512 667.498V666.321L1504.94 663.055L1512 659.79V658.613L1503.69 662.467C1477.73 650.398 1451.75 638.329 1425.8 626.28C1451.75 614.21 1477.71 602.141 1503.69 590.092L1512 593.946V592.77L1504.94 589.484L1512 586.218V585.042L1503.69 588.896C1477.73 576.826 1451.75 564.757 1425.8 552.708C1451.75 540.639 1477.71 528.57 1503.69 516.521L1512 520.375V519.198L1504.94 515.912L1512 512.626V511.45L1503.69 515.304C1477.73 503.234 1451.78 491.165 1425.8 479.116C1451.75 467.047 1477.71 454.978 1503.69 442.929L1512 446.783V445.606L1504.94 442.32L1512 439.034V437.858L1503.69 441.732C1477.73 429.663 1451.78 417.594 1425.8 405.545C1451.75 393.475 1477.71 381.406 1503.69 369.357L1511.82 373.232V372.055L1504.77 368.769L1511.82 365.483V364.306L1503.51 368.181C1477.56 356.112 1451.6 344.042 1425.62 331.993C1451.58 319.924 1477.53 307.855 1503.51 295.806L1511.82 299.68V298.504L1504.77 295.218L1511.82 291.932V290.755L1503.51 294.629C1477.56 282.56 1451.6 270.491 1425.62 258.442C1451.58 246.373 1477.53 234.304 1503.51 222.255L1511.82 226.129V224.952L1504.77 221.666L1511.82 218.38V217.204L1503.51 221.078C1477.56 209.009 1451.6 196.94 1425.62 184.891C1451.58 172.822 1477.53 160.752 1503.51 148.703L1511.82 152.578V151.401L1504.77 148.115L1511.82 144.829V143.653L1503.51 147.527C1477.56 135.458 1451.6 123.388 1425.62 111.339C1451.58 99.2702 1477.53 87.201 1503.51 75.1521L1511.82 79.0264V77.8499L1504.77 74.5638L1511.82 71.2777V70.1012L1503.51 73.9756C1477.56 61.9063 1451.58 49.8371 1425.62 37.7882C1451.58 25.7189 1477.53 13.6497 1503.51 1.60076L1511.82 5.47508V4.25801L1504.77 0.971938L1506.38 0.221415C1505.3 -0.12342 1504.34 -0.062567 1503.51 0.38369C1502.68 -0.062567 1501.72 -0.12342 1500.64 0.221415L1502.22 0.971938ZM1306.29 19.6539L1345.22 1.56019C1371.17 13.6294 1397.15 25.6986 1423.1 37.7476C1397.15 49.8168 1371.2 61.8861 1345.22 73.935C1319.27 61.8658 1293.29 49.7965 1267.34 37.7476L1306.29 19.6539ZM513.667 424.247L552.597 442.341C526.644 454.41 500.691 466.479 474.713 478.528C448.76 466.459 422.781 454.39 396.829 442.341C422.781 430.271 448.734 418.202 474.713 406.153L513.667 424.247ZM475.972 405.565C501.925 393.496 527.878 381.427 553.857 369.378C579.81 381.447 605.788 393.516 631.741 405.565C605.788 417.634 579.835 429.703 553.857 441.752C527.904 429.683 501.951 417.634 475.972 405.565ZM514.927 461.023L553.857 442.929C579.81 454.998 605.788 467.067 631.741 479.116C605.788 491.185 579.835 503.255 553.857 515.304C527.904 503.234 501.951 491.165 475.972 479.116L514.927 461.023ZM594.071 460.434L555.142 442.341C581.095 430.271 607.048 418.202 633.026 406.153C658.979 418.222 684.932 430.292 710.91 442.341C684.957 454.41 659.004 466.479 633.026 478.528L594.071 460.434ZM634.26 405.565C660.213 393.496 686.166 381.427 712.145 369.378C738.097 381.447 764.076 393.516 790.029 405.565C764.076 417.634 738.123 429.703 712.145 441.752C686.166 429.683 660.213 417.634 634.26 405.565ZM673.19 461.023L712.119 442.929C738.072 454.998 764.05 467.067 790.003 479.116C764.05 491.185 738.097 503.255 712.119 515.304C686.166 503.234 660.213 491.165 634.235 479.116L673.19 461.023ZM752.334 460.434L713.404 442.341C739.357 430.271 765.31 418.202 791.289 406.153C817.241 418.222 843.22 430.292 869.173 442.341C843.22 454.41 817.267 466.479 791.289 478.528L752.334 460.434ZM792.523 405.565C818.476 393.496 844.429 381.427 870.407 369.378C896.36 381.447 922.313 393.516 948.291 405.565C922.338 417.634 896.385 429.703 870.407 441.752C844.454 429.683 818.501 417.634 792.523 405.565ZM831.478 461.023L870.407 442.929C896.36 454.998 922.313 467.067 948.291 479.116C922.338 491.185 896.385 503.255 870.407 515.304C844.454 503.234 818.501 491.165 792.523 479.116L831.478 461.023ZM910.597 460.434L871.667 442.341C897.62 430.271 923.573 418.202 949.551 406.153C975.504 418.222 1001.48 430.292 1027.44 442.341C1001.48 454.41 975.529 466.479 949.551 478.528L910.597 460.434ZM989.74 461.023L1028.67 442.929C1054.62 454.998 1080.6 467.067 1106.55 479.116C1080.6 491.185 1054.65 503.255 1028.67 515.304C1002.72 503.234 976.739 491.165 950.786 479.116L989.74 461.023ZM989.74 423.659L950.811 405.565C976.764 393.496 1002.72 381.427 1028.7 369.378C1054.65 381.447 1080.63 393.516 1106.58 405.565C1080.63 417.634 1054.67 429.703 1028.7 441.752L989.74 423.659ZM989.74 350.107L950.811 332.014C976.764 319.944 1002.72 307.875 1028.7 295.826C1054.65 307.895 1080.63 319.965 1106.58 332.014C1080.63 344.083 1054.67 356.152 1028.7 368.201L989.74 350.107ZM988.481 350.675L1027.41 368.769C1001.46 380.838 975.504 392.908 949.526 404.956C923.573 392.887 897.62 380.818 871.642 368.769C897.595 356.7 923.548 344.631 949.526 332.582L988.481 350.675ZM909.337 350.087L870.407 368.181C844.454 356.112 818.476 344.042 792.523 331.993C818.476 319.924 844.429 307.855 870.407 295.806C896.36 307.875 922.313 319.944 948.291 331.993L909.337 350.087ZM830.218 350.675L869.147 368.769C843.194 380.838 817.241 392.908 791.263 404.956C765.31 392.887 739.332 380.818 713.379 368.769C739.332 356.7 765.285 344.631 791.263 332.582L830.218 350.675ZM751.074 350.087L712.145 368.181C686.192 356.112 660.239 344.042 634.26 331.993C660.213 319.924 686.166 307.855 712.145 295.806C738.097 307.875 764.076 319.944 790.029 331.993L751.074 350.087ZM671.93 350.675L710.859 368.769C684.906 380.838 658.954 392.908 632.975 404.956C607.022 392.887 581.044 380.818 555.091 368.769C581.044 356.7 606.997 344.631 632.975 332.582L671.93 350.675ZM592.786 350.087L553.857 368.181C527.904 356.112 501.951 344.042 475.972 331.993C501.925 319.924 527.878 307.855 553.857 295.806C579.81 307.875 605.763 319.944 631.741 331.993L592.786 350.087ZM513.667 350.675L552.597 368.769C526.644 380.838 500.691 392.908 474.713 404.956C448.76 392.887 422.807 380.818 396.829 368.769C422.781 356.7 448.734 344.631 474.713 332.582L513.667 350.675ZM434.523 350.087L395.594 368.181C369.641 356.112 343.663 344.042 317.71 331.993C343.663 319.924 369.616 307.855 395.594 295.806C421.547 307.875 447.5 319.944 473.478 331.993L434.523 350.087ZM434.523 387.471L473.453 405.565C447.5 417.634 421.547 429.703 395.569 441.752C369.616 429.683 343.663 417.614 317.685 405.565C343.638 393.496 369.59 381.427 395.569 369.378L434.523 387.471ZM434.523 461.023L473.453 479.116C447.5 491.185 421.547 503.255 395.569 515.304C369.616 503.234 343.663 491.165 317.685 479.116C343.638 467.047 369.59 454.978 395.569 442.929L434.523 461.023ZM434.523 534.594L473.453 552.688C447.5 564.757 421.547 576.826 395.569 588.875C369.616 576.806 343.663 564.737 317.685 552.688C343.638 540.619 369.59 528.549 395.569 516.5L434.523 534.594ZM435.783 534.006L396.854 515.912C422.807 503.843 448.76 491.774 474.738 479.725C500.691 491.794 526.644 503.863 552.622 515.912C526.669 527.981 500.716 540.051 474.738 552.1L435.783 534.006ZM514.927 534.594L553.857 516.5C579.81 528.57 605.788 540.639 631.741 552.688C605.788 564.757 579.835 576.826 553.857 588.875C527.904 576.806 501.951 564.737 475.972 552.688L514.927 534.594ZM594.071 534.006L555.142 515.912C581.095 503.843 607.048 491.774 633.026 479.725C658.979 491.794 684.932 503.863 710.91 515.912C684.957 527.981 659.004 540.051 633.026 552.1L594.071 534.006ZM673.19 534.594L712.119 516.5C738.072 528.57 764.05 540.639 790.003 552.688C764.05 564.757 738.097 576.826 712.119 588.875C686.166 576.806 660.213 564.737 634.235 552.688L673.19 534.594ZM752.334 534.006L713.404 515.912C739.357 503.843 765.31 491.774 791.289 479.725C817.241 491.794 843.194 503.863 869.173 515.912C843.22 527.981 817.267 540.051 791.289 552.1L752.334 534.006ZM831.478 534.594L870.407 516.5C896.36 528.57 922.338 540.639 948.291 552.688C922.338 564.757 896.385 576.826 870.407 588.875C844.454 576.806 818.501 564.737 792.523 552.688L831.478 534.594ZM910.622 534.006L871.692 515.912C897.645 503.843 923.598 491.774 949.576 479.725C975.529 491.794 1001.51 503.863 1027.46 515.912C1001.51 527.981 975.555 540.051 949.576 552.1L910.622 534.006ZM989.74 534.594L1028.67 516.5C1054.62 528.57 1080.6 540.639 1106.55 552.688C1080.6 564.757 1054.65 576.826 1028.67 588.875C1002.72 576.806 976.739 564.737 950.786 552.688L989.74 534.594ZM1068.88 534.006L1029.96 515.912C1055.91 503.843 1081.86 491.774 1107.84 479.725C1133.79 491.794 1159.74 503.863 1185.72 515.912C1159.77 527.981 1133.82 540.051 1107.84 552.1L1068.88 534.006ZM1068.88 460.434L1029.96 442.341C1055.91 430.271 1081.86 418.202 1107.84 406.153C1133.79 418.222 1159.74 430.292 1185.72 442.341C1159.77 454.41 1133.82 466.479 1107.84 478.528L1068.88 460.434ZM1068.88 386.883L1029.96 368.789C1055.91 356.72 1081.86 344.651 1107.84 332.602C1133.79 344.671 1159.74 356.74 1185.72 368.789C1159.77 380.859 1133.82 392.928 1107.84 404.977L1068.88 386.883ZM1068.88 313.311L1029.96 295.218C1055.91 283.148 1081.86 271.079 1107.84 259.03C1133.79 271.1 1159.77 283.169 1185.72 295.218C1159.77 307.287 1133.82 319.356 1107.84 331.405L1068.88 313.311ZM1067.62 276.536L1028.7 294.629C1002.74 282.56 976.764 270.491 950.811 258.442C976.764 246.373 1002.72 234.304 1028.7 222.255C1054.65 234.324 1080.63 246.393 1106.58 258.442L1067.62 276.536ZM988.481 277.124L1027.41 295.218C1001.46 307.287 975.504 319.356 949.526 331.405C923.573 319.336 897.62 307.267 871.642 295.218C897.595 283.148 923.548 271.079 949.526 259.03L988.481 277.124ZM909.337 276.536L870.407 294.629C844.454 282.56 818.476 270.491 792.523 258.442C818.476 246.373 844.429 234.304 870.407 222.255C896.36 234.324 922.313 246.393 948.291 258.442L909.337 276.536ZM830.218 277.124L869.147 295.218C843.194 307.287 817.241 319.356 791.263 331.405C765.31 319.336 739.332 307.267 713.379 295.218C739.332 283.148 765.285 271.079 791.263 259.03L830.218 277.124ZM751.074 276.536L712.145 294.629C686.192 282.56 660.239 270.491 634.26 258.442C660.213 246.373 686.166 234.304 712.145 222.255C738.097 234.324 764.076 246.393 790.029 258.442L751.074 276.536ZM671.93 277.124L710.859 295.218C684.906 307.287 658.954 319.356 632.975 331.405C607.022 319.336 581.069 307.267 555.091 295.218C581.044 283.148 606.997 271.079 632.975 259.03L671.93 277.124ZM592.786 276.536L553.857 294.629C527.904 282.56 501.925 270.491 475.972 258.442C501.925 246.373 527.878 234.304 553.857 222.255C579.81 234.324 605.763 246.393 631.741 258.442L592.786 276.536ZM513.667 277.124L552.597 295.218C526.644 307.287 500.691 319.356 474.713 331.405C448.76 319.336 422.807 307.267 396.829 295.218C422.781 283.148 448.734 271.079 474.713 259.03L513.667 277.124ZM434.523 276.536L395.594 294.629C369.641 282.56 343.663 270.491 317.71 258.442C343.663 246.373 369.616 234.304 395.594 222.255C421.547 234.324 447.5 246.393 473.478 258.442L434.523 276.536ZM355.379 277.124L394.309 295.218C368.356 307.287 342.403 319.356 316.425 331.405C290.472 319.336 264.519 307.267 238.541 295.218C264.494 283.148 290.447 271.079 316.425 259.03L355.379 277.124ZM355.379 350.675L394.309 368.769C368.356 380.838 342.403 392.908 316.425 404.956C290.472 392.887 264.519 380.818 238.541 368.769C264.494 356.7 290.447 344.631 316.425 332.582L355.379 350.675ZM355.379 424.247L394.309 442.341C368.356 454.41 342.403 466.479 316.425 478.528C290.472 466.459 264.519 454.39 238.541 442.341C264.494 430.271 290.447 418.202 316.425 406.153L355.379 424.247ZM355.379 497.798L394.309 515.892C368.356 527.961 342.403 540.03 316.425 552.079C290.472 540.01 264.494 527.941 238.541 515.892C264.494 503.823 290.447 491.753 316.425 479.705L355.379 497.798ZM355.379 571.37L394.309 589.464C368.356 601.533 342.403 613.602 316.425 625.651C290.472 613.582 264.494 601.512 238.541 589.464C264.494 577.394 290.447 565.325 316.425 553.276L355.379 571.37ZM356.639 608.145L395.569 590.052C421.522 602.121 447.5 614.19 473.453 626.239C447.5 638.308 421.547 650.378 395.569 662.427C369.616 650.357 343.663 638.288 317.685 626.239L356.639 608.145ZM435.783 607.557L396.854 589.464C422.807 577.394 448.76 565.325 474.738 553.276C500.691 565.345 526.644 577.415 552.622 589.464C526.669 601.533 500.716 613.602 474.738 625.651L435.783 607.557ZM514.927 608.145L553.857 590.052C579.81 602.121 605.763 614.19 631.741 626.239C605.788 638.308 579.835 650.378 553.857 662.427C527.904 650.357 501.951 638.288 475.972 626.239L514.927 608.145ZM594.071 607.577L555.142 589.484C581.095 577.414 607.048 565.345 633.026 553.296C658.979 565.366 684.932 577.435 710.91 589.484C684.957 601.553 659.004 613.622 633.026 625.671L594.071 607.577ZM673.19 608.145L712.119 590.052C738.072 602.121 764.05 614.19 790.003 626.239C764.05 638.308 738.097 650.378 712.119 662.427C686.166 650.357 660.188 638.288 634.235 626.239L673.19 608.145ZM752.334 607.577L713.404 589.484C739.357 577.414 765.31 565.345 791.289 553.296C817.241 565.366 843.194 577.435 869.173 589.484C843.22 601.553 817.267 613.622 791.289 625.671L752.334 607.577ZM831.478 608.166L870.407 590.072C896.36 602.141 922.338 614.21 948.291 626.259C922.338 638.329 896.385 650.398 870.407 662.447C844.454 650.378 818.501 638.308 792.523 626.259L831.478 608.166ZM910.622 607.577L871.692 589.484C897.645 577.414 923.598 565.345 949.576 553.296C975.529 565.366 1001.51 577.435 1027.46 589.484C1001.51 601.553 975.555 613.622 949.576 625.671L910.622 607.577ZM989.74 608.166L1028.67 590.072C1054.62 602.141 1080.6 614.21 1106.55 626.259C1080.6 638.329 1054.65 650.398 1028.67 662.447C1002.72 650.378 976.739 638.308 950.786 626.259L989.74 608.166ZM1068.88 607.577L1029.96 589.484C1055.91 577.414 1081.86 565.345 1107.84 553.296C1133.79 565.366 1159.74 577.435 1185.72 589.484C1159.77 601.553 1133.82 613.622 1107.84 625.671L1068.88 607.577ZM1148.03 608.166L1186.96 590.072C1212.91 602.141 1238.89 614.21 1264.84 626.259C1238.89 638.329 1212.94 650.398 1186.96 662.447C1161.01 650.378 1135.05 638.308 1109.07 626.259L1148.03 608.166ZM1148.03 570.782L1109.1 552.688C1135.05 540.619 1161 528.549 1186.98 516.5C1212.94 528.57 1238.91 540.639 1264.87 552.688C1238.91 564.757 1212.96 576.826 1186.98 588.875L1148.03 570.782ZM1148.03 497.23L1109.1 479.137C1135.05 467.067 1161 454.998 1186.98 442.949C1212.94 455.018 1238.91 467.088 1264.87 479.137C1238.91 491.206 1212.96 503.275 1186.98 515.324L1148.03 497.23ZM1148.03 423.659L1109.1 405.565C1135.05 393.496 1161 381.427 1186.98 369.378C1212.94 381.447 1238.91 393.516 1264.87 405.565C1238.91 417.634 1212.96 429.703 1186.98 441.752L1148.03 423.659ZM1148.03 350.107L1109.1 332.014C1135.05 319.944 1161 307.875 1186.98 295.826C1212.94 307.895 1238.89 319.965 1264.87 332.014C1238.91 344.083 1212.96 356.152 1186.98 368.201L1148.03 350.107ZM1148.03 276.536L1109.1 258.442C1135.05 246.373 1161 234.304 1186.98 222.255C1212.94 234.324 1238.89 246.393 1264.87 258.442C1238.91 270.511 1212.96 282.581 1186.98 294.629L1148.03 276.536ZM1148 202.964L1109.07 184.87C1135.03 172.801 1160.98 160.732 1186.96 148.683C1212.91 160.752 1238.86 172.822 1264.84 184.87C1238.89 196.94 1212.94 209.009 1186.96 221.058L1148 202.964ZM1146.74 203.552L1185.67 221.646C1159.72 233.715 1133.77 245.785 1107.79 257.834C1081.84 245.764 1055.86 233.695 1029.9 221.646C1055.86 209.577 1081.81 197.508 1107.79 185.459L1146.74 203.552ZM1067.62 202.964L1028.7 221.058C1002.74 208.989 976.764 196.919 950.811 184.87C976.764 172.801 1002.72 160.732 1028.7 148.683C1054.65 160.752 1080.63 172.822 1106.58 184.87L1067.62 202.964ZM988.481 203.552L1027.41 221.646C1001.46 233.715 975.504 245.785 949.526 257.834C923.573 245.764 897.62 233.695 871.642 221.646C897.595 209.577 923.548 197.508 949.526 185.459L988.481 203.552ZM909.337 202.964L870.407 221.058C844.454 208.989 818.476 196.919 792.523 184.87C818.476 172.801 844.429 160.732 870.407 148.683C896.36 160.752 922.313 172.822 948.291 184.87L909.337 202.964ZM830.193 203.552L869.122 221.646C843.169 233.715 817.216 245.785 791.238 257.834C765.285 245.764 739.307 233.695 713.354 221.646C739.307 209.577 765.26 197.508 791.238 185.459L830.193 203.552ZM751.074 202.964L712.145 221.058C686.192 208.989 660.239 196.919 634.26 184.87C660.213 172.801 686.166 160.732 712.145 148.683C738.097 160.752 764.05 172.822 790.029 184.87L751.074 202.964ZM671.93 203.552L710.859 221.646C684.906 233.715 658.954 245.785 632.975 257.834C607.022 245.764 581.069 233.695 555.091 221.646C581.044 209.577 606.997 197.508 632.975 185.459L671.93 203.552ZM592.786 202.964L553.857 221.058C527.904 208.989 501.925 196.919 475.972 184.87C501.925 172.801 527.878 160.732 553.857 148.683C579.81 160.752 605.763 172.822 631.741 184.87L592.786 202.964ZM513.642 203.552L552.572 221.646C526.619 233.715 500.666 245.785 474.687 257.834C448.734 245.764 422.781 233.695 396.803 221.646C422.756 209.577 448.709 197.508 474.687 185.459L513.642 203.552ZM434.523 202.964L395.594 221.058C369.641 208.989 343.663 196.919 317.71 184.87C343.663 172.801 369.616 160.732 395.594 148.683C421.547 160.752 447.5 172.822 473.478 184.87L434.523 202.964ZM355.379 203.552L394.309 221.646C368.356 233.715 342.403 245.785 316.425 257.834C290.472 245.764 264.519 233.695 238.541 221.646C264.494 209.577 290.447 197.508 316.425 185.459L355.379 203.552ZM276.235 202.964L237.306 221.058C211.353 208.989 185.375 196.919 159.422 184.87C185.375 172.801 211.328 160.732 237.306 148.683C263.259 160.752 289.212 172.822 315.19 184.87L276.235 202.964ZM276.235 240.328L315.165 258.422C289.212 270.491 263.259 282.56 237.281 294.609C211.328 282.54 185.35 270.471 159.397 258.422C185.35 246.353 211.303 234.283 237.281 222.234L276.235 240.328ZM276.235 313.9L315.165 331.993C289.212 344.063 263.259 356.132 237.281 368.181C211.328 356.112 185.35 344.042 159.397 331.993C185.35 319.924 211.303 307.855 237.281 295.806L276.235 313.9ZM276.235 387.451L315.165 405.545C289.212 417.614 263.259 429.683 237.281 441.732C211.328 429.663 185.35 417.594 159.397 405.545C185.35 393.475 211.303 381.406 237.281 369.357L276.235 387.451ZM276.261 461.023L315.19 479.116C289.237 491.185 263.284 503.255 237.306 515.304C211.353 503.234 185.4 491.165 159.422 479.116C185.375 467.047 211.328 454.978 237.306 442.929L276.261 461.023ZM276.261 534.594L315.19 552.688C289.237 564.757 263.284 576.826 237.306 588.875C211.353 576.806 185.4 564.737 159.422 552.688C185.375 540.619 211.328 528.549 237.306 516.5L276.261 534.594ZM276.261 608.145L315.19 626.239C289.237 638.308 263.284 650.378 237.306 662.427C211.353 650.357 185.4 638.288 159.422 626.239C185.375 614.17 211.328 602.101 237.306 590.052L276.261 608.145ZM276.261 681.717L315.19 699.811C289.237 711.88 263.284 723.949 237.306 735.998C211.353 723.929 185.4 711.86 159.422 699.811C185.375 687.742 211.328 675.672 237.306 663.623L276.261 681.717ZM277.52 681.129L238.591 663.035C264.544 650.966 290.497 638.897 316.475 626.848C342.428 638.917 368.381 650.986 394.359 663.035C368.406 675.104 342.453 687.174 316.475 699.222L277.52 681.129ZM356.664 681.717L395.594 663.623C421.547 675.693 447.5 687.762 473.478 699.811C447.525 711.88 421.572 723.949 395.594 735.998C369.641 723.929 343.688 711.86 317.71 699.811L356.664 681.717ZM435.783 681.129L396.854 663.035C422.807 650.966 448.76 638.897 474.738 626.848C500.691 638.917 526.644 650.986 552.622 663.035C526.669 675.104 500.716 687.174 474.738 699.222L435.783 681.129ZM514.927 681.717L553.857 663.623C579.81 675.693 605.763 687.762 631.741 699.811C605.788 711.88 579.835 723.949 553.857 735.998C527.904 723.929 501.925 711.86 475.972 699.811L514.927 681.717ZM594.071 681.129L555.142 663.035C581.095 650.966 607.048 638.897 633.026 626.848C658.979 638.917 684.957 650.986 710.91 663.035C684.957 675.104 659.004 687.174 633.026 699.222L594.071 681.129ZM673.215 681.717L712.145 663.623C738.097 675.693 764.076 687.762 790.029 699.811C764.076 711.88 738.123 723.949 712.145 735.998C686.192 723.929 660.213 711.86 634.26 699.811L673.215 681.717ZM752.334 681.129L713.404 663.035C739.357 650.966 765.31 638.897 791.289 626.848C817.241 638.917 843.194 650.986 869.173 663.035C843.22 675.104 817.267 687.174 791.289 699.222L752.334 681.129ZM831.478 681.717L870.407 663.623C896.36 675.693 922.338 687.762 948.291 699.811C922.338 711.88 896.385 723.949 870.407 735.998C844.454 723.929 818.501 711.86 792.523 699.811L831.478 681.717ZM910.622 681.129L871.692 663.035C897.645 650.966 923.598 638.897 949.576 626.848C975.529 638.917 1001.51 650.986 1027.46 663.035C1001.51 675.104 975.555 687.174 949.576 699.222L910.622 681.129ZM989.766 681.717L1028.7 663.623C1054.65 675.693 1080.6 687.762 1106.58 699.811C1080.63 711.88 1054.67 723.949 1028.7 735.998C1002.74 723.929 976.764 711.86 950.811 699.811L989.766 681.717ZM1068.88 681.129L1029.96 663.035C1055.91 650.966 1081.86 638.897 1107.84 626.848C1133.79 638.917 1159.74 650.986 1185.72 663.035C1159.77 675.104 1133.82 687.174 1107.84 699.222L1068.88 681.129ZM1148.03 681.717L1186.96 663.623C1212.91 675.693 1238.89 687.762 1264.84 699.811C1238.89 711.88 1212.94 723.949 1186.96 735.998C1161.01 723.929 1135.03 711.86 1109.07 699.811L1148.03 681.717ZM1227.17 681.129L1188.24 663.035C1214.2 650.966 1240.15 638.897 1266.13 626.848C1292.08 638.917 1318.06 650.986 1344.01 663.035C1318.06 675.104 1292.11 687.174 1266.13 699.222L1227.17 681.129ZM1227.17 607.577L1188.24 589.484C1214.2 577.414 1240.15 565.345 1266.13 553.296C1292.08 565.366 1318.06 577.435 1344.01 589.484C1318.06 601.553 1292.11 613.622 1266.13 625.671L1227.17 607.577ZM1227.17 534.006L1188.24 515.912C1214.2 503.843 1240.15 491.774 1266.13 479.725C1292.08 491.794 1318.06 503.863 1344.01 515.912C1318.06 527.981 1292.11 540.051 1266.13 552.1L1227.17 534.006ZM1227.15 460.434L1188.22 442.341C1214.17 430.271 1240.12 418.202 1266.1 406.153C1292.05 418.222 1318.03 430.292 1343.99 442.341C1318.03 454.41 1292.08 466.479 1266.1 478.528L1227.15 460.434ZM1227.15 386.883L1188.22 368.789C1214.17 356.72 1240.12 344.651 1266.1 332.602C1292.05 344.671 1318.03 356.74 1343.99 368.789C1318.03 380.859 1292.08 392.928 1266.1 404.977L1227.15 386.883ZM1227.15 313.311L1188.22 295.218C1214.17 283.148 1240.12 271.079 1266.1 259.03C1292.05 271.1 1318.03 283.169 1343.99 295.218C1318.03 307.287 1292.08 319.356 1266.1 331.405L1227.15 313.311ZM1227.15 239.76L1188.22 221.666C1214.17 209.597 1240.12 197.528 1266.1 185.479C1292.05 197.548 1318.03 209.617 1343.99 221.666C1318.03 233.736 1292.08 245.805 1266.1 257.854L1227.15 239.76ZM1227.15 166.189L1188.22 148.095C1214.17 136.026 1240.12 123.956 1266.1 111.907C1292.05 123.977 1318.03 136.046 1343.99 148.095C1318.03 160.164 1292.08 172.233 1266.1 184.282L1227.15 166.189ZM1225.89 129.413L1186.96 147.507C1161.01 135.437 1135.03 123.368 1109.07 111.319C1135.03 99.25 1160.98 87.1807 1186.96 75.1318C1212.91 87.201 1238.86 99.2702 1264.84 111.319L1225.89 129.413ZM1146.74 130.001L1185.67 148.095C1159.72 160.164 1133.77 172.233 1107.79 184.282C1081.84 172.213 1055.86 160.144 1029.9 148.095C1055.86 136.026 1081.81 123.956 1107.79 111.907L1146.74 130.001ZM1067.62 129.413L1028.7 147.507C1002.74 135.437 976.764 123.368 950.811 111.319C976.764 99.25 1002.72 87.1807 1028.7 75.1318C1054.65 87.201 1080.63 99.2702 1106.58 111.319L1067.62 129.413ZM988.481 130.001L1027.41 148.095C1001.46 160.164 975.504 172.233 949.526 184.282C923.573 172.213 897.62 160.144 871.642 148.095C897.595 136.026 923.548 123.956 949.526 111.907L988.481 130.001ZM909.337 129.413L870.407 147.507C844.454 135.437 818.476 123.368 792.523 111.319C818.476 99.25 844.429 87.1807 870.407 75.1318C896.36 87.201 922.313 99.2702 948.291 111.319L909.337 129.413ZM830.193 129.981L869.122 148.075C843.169 160.144 817.216 172.213 791.238 184.262C765.285 172.193 739.332 160.123 713.354 148.075C739.307 136.005 765.26 123.936 791.238 111.887L830.193 129.981ZM751.074 129.413L712.145 147.507C686.192 135.437 660.213 123.368 634.26 111.319C660.213 99.25 686.166 87.1807 712.145 75.1318C738.097 87.201 764.05 99.2702 790.029 111.319L751.074 129.413ZM671.93 129.981L710.859 148.075C684.906 160.144 658.954 172.213 632.975 184.262C607.022 172.193 581.069 160.123 555.091 148.075C581.044 136.005 606.997 123.936 632.975 111.887L671.93 129.981ZM592.786 129.393L553.857 147.486C527.904 135.417 501.925 123.348 475.972 111.299C501.925 99.2297 527.878 87.1604 553.857 75.1115C579.81 87.1807 605.763 99.2499 631.741 111.299L592.786 129.393ZM513.642 129.981L552.572 148.075C526.619 160.144 500.666 172.213 474.687 184.262C448.734 172.193 422.781 160.123 396.803 148.075C422.756 136.005 448.709 123.936 474.687 111.887L513.642 129.981ZM434.523 129.393L395.594 147.486C369.641 135.417 343.663 123.348 317.71 111.299C343.663 99.2297 369.616 87.1604 395.594 75.1115C421.547 87.1807 447.5 99.2499 473.478 111.299L434.523 129.393ZM355.379 129.981L394.309 148.075C368.356 160.144 342.403 172.213 316.425 184.262C290.472 172.193 264.519 160.123 238.541 148.075C264.494 136.005 290.447 123.936 316.425 111.887L355.379 129.981ZM276.235 129.393L237.306 147.486C211.353 135.417 185.4 123.348 159.422 111.299C185.375 99.2297 211.328 87.1604 237.306 75.1115C263.259 87.1807 289.212 99.2499 315.19 111.299L276.235 129.393ZM197.091 129.981L236.046 148.075C210.093 160.144 184.14 172.213 158.162 184.262C132.209 172.213 106.256 160.144 80.2778 148.075C106.231 136.005 132.184 123.936 158.162 111.887L197.091 129.981ZM197.091 203.552L236.021 221.646C210.068 233.715 184.115 245.785 158.137 257.834C132.184 245.764 106.231 233.695 80.2526 221.646C106.206 209.577 132.159 197.508 158.137 185.459L197.091 203.552ZM197.117 277.124L236.046 295.218C210.093 307.287 184.14 319.356 158.162 331.405C132.209 319.336 106.256 307.267 80.2778 295.218C106.231 283.148 132.184 271.079 158.162 259.03L197.117 277.124ZM197.117 350.675L236.046 368.769C210.093 380.838 184.14 392.908 158.162 404.956C132.209 392.887 106.256 380.818 80.2778 368.769C106.231 356.7 132.184 344.631 158.162 332.582L197.117 350.675ZM197.117 424.247L236.046 442.341C210.093 454.41 184.14 466.479 158.162 478.528C132.209 466.459 106.256 454.39 80.2778 442.341C106.231 430.271 132.184 418.202 158.162 406.153L197.117 424.247ZM197.117 497.798L236.046 515.892C210.093 527.961 184.14 540.03 158.162 552.079C132.209 540.01 106.256 527.941 80.2778 515.892C106.231 503.823 132.184 491.753 158.162 479.705L197.117 497.798ZM197.117 571.37L236.046 589.464C210.093 601.533 184.14 613.602 158.162 625.651C132.209 613.582 106.231 601.512 80.2778 589.464C106.231 577.394 132.184 565.325 158.162 553.276L197.117 571.37ZM197.117 644.941L236.046 663.035C210.093 675.104 184.14 687.174 158.162 699.222C132.209 687.153 106.231 675.084 80.2778 663.035C106.231 650.966 132.184 638.897 158.162 626.848L197.117 644.941ZM197.117 718.493L236.046 736.586C210.093 748.656 184.14 760.725 158.162 772.774C132.209 760.705 106.231 748.635 80.2778 736.586C106.231 724.517 132.184 712.448 158.162 700.399L197.117 718.493ZM198.376 755.289L237.306 737.195C263.259 749.264 289.212 761.333 315.19 773.382C289.237 785.452 263.284 797.521 237.306 809.57C211.353 797.5 185.4 785.431 159.422 773.382L198.376 755.289ZM277.52 754.7L238.591 736.607C264.544 724.537 290.497 712.468 316.475 700.419C342.428 712.488 368.381 724.558 394.359 736.607C368.406 748.676 342.453 760.745 316.475 772.794L277.52 754.7ZM356.664 755.289L395.594 737.195C421.547 749.264 447.5 761.333 473.478 773.382C447.525 785.452 421.572 797.521 395.594 809.57C369.641 797.5 343.663 785.431 317.71 773.382L356.664 755.289ZM435.783 754.7L396.854 736.607C422.807 724.537 448.76 712.468 474.738 700.419C500.691 712.488 526.669 724.558 552.622 736.607C526.669 748.676 500.716 760.745 474.738 772.794L435.783 754.7ZM514.927 755.289L553.857 737.195C579.81 749.264 605.763 761.333 631.741 773.382C605.788 785.452 579.835 797.521 553.857 809.57C527.904 797.5 501.925 785.431 475.972 773.382L514.927 755.289ZM594.071 754.7L555.142 736.607C581.095 724.537 607.048 712.468 633.026 700.419C658.979 712.488 684.957 724.558 710.91 736.607C684.957 748.676 659.004 760.745 633.026 772.794L594.071 754.7ZM673.215 755.289L712.145 737.195C738.097 749.264 764.076 761.333 790.029 773.382C764.076 785.452 738.123 797.521 712.145 809.57C686.192 797.5 660.213 785.431 634.26 773.382L673.215 755.289ZM752.334 754.7L713.404 736.607C739.357 724.537 765.31 712.468 791.289 700.419C817.241 712.488 843.194 724.558 869.173 736.607C843.22 748.676 817.267 760.745 791.289 772.794L752.334 754.7ZM831.478 755.289L870.407 737.195C896.36 749.264 922.338 761.333 948.291 773.382C922.338 785.452 896.385 797.521 870.407 809.57C844.454 797.5 818.501 785.431 792.523 773.382L831.478 755.289ZM910.622 754.7L871.692 736.607C897.645 724.537 923.598 712.468 949.576 700.419C975.529 712.488 1001.51 724.558 1027.46 736.607C1001.51 748.676 975.555 760.745 949.576 772.794L910.622 754.7ZM989.766 755.289L1028.7 737.195C1054.65 749.264 1080.6 761.333 1106.58 773.382C1080.63 785.452 1054.67 797.521 1028.7 809.57C1002.74 797.5 976.764 785.431 950.811 773.382L989.766 755.289ZM1068.88 754.7L1029.96 736.607C1055.91 724.537 1081.86 712.468 1107.84 700.419C1133.79 712.488 1159.77 724.558 1185.72 736.607C1159.77 748.676 1133.82 760.745 1107.84 772.794L1068.88 754.7ZM1148.03 755.289L1186.96 737.195C1212.91 749.264 1238.89 761.333 1264.84 773.382C1238.89 785.452 1212.94 797.521 1186.96 809.57C1161.01 797.5 1135.03 785.431 1109.07 773.382L1148.03 755.289ZM1227.17 754.7L1188.24 736.607C1214.2 724.537 1240.15 712.468 1266.13 700.419C1292.08 712.488 1318.06 724.558 1344.01 736.607C1318.06 748.676 1292.11 760.745 1266.13 772.794L1227.17 754.7ZM1306.32 755.289L1345.25 737.195C1371.2 749.264 1397.15 761.333 1423.13 773.382C1397.18 785.452 1371.22 797.521 1345.25 809.57C1319.29 797.5 1293.31 785.431 1267.36 773.382L1306.32 755.289ZM1306.32 717.925L1267.36 699.811C1293.31 687.742 1319.27 675.672 1345.25 663.623C1371.2 675.693 1397.15 687.762 1423.13 699.811C1397.18 711.88 1371.22 723.949 1345.25 735.998L1306.32 717.925ZM1306.29 644.353L1267.36 626.259C1293.31 614.19 1319.27 602.121 1345.25 590.072C1371.2 602.141 1397.15 614.21 1423.13 626.259C1397.18 638.329 1371.22 650.398 1345.25 662.447L1306.29 644.353ZM1306.29 570.782L1267.36 552.688C1293.31 540.619 1319.27 528.549 1345.25 516.5C1371.2 528.57 1397.15 540.639 1423.13 552.688C1397.18 564.757 1371.22 576.826 1345.25 588.875L1306.29 570.782ZM1306.29 497.23L1267.36 479.137C1293.31 467.067 1319.27 454.998 1345.25 442.949C1371.2 455.018 1397.18 467.088 1423.13 479.137C1397.18 491.206 1371.22 503.275 1345.25 515.324L1306.29 497.23ZM1306.29 423.659L1267.36 405.565C1293.31 393.496 1319.27 381.427 1345.25 369.378C1371.2 381.447 1397.18 393.516 1423.13 405.565C1397.18 417.634 1371.22 429.703 1345.25 441.752L1306.29 423.659ZM1306.29 350.107L1267.36 332.014C1293.31 319.944 1319.27 307.875 1345.25 295.826C1371.2 307.895 1397.18 319.965 1423.13 332.014C1397.18 344.083 1371.22 356.152 1345.25 368.201L1306.29 350.107ZM1306.29 276.536L1267.36 258.442C1293.31 246.373 1319.27 234.304 1345.25 222.255C1371.2 234.324 1397.18 246.393 1423.13 258.442C1397.18 270.511 1371.22 282.581 1345.25 294.629L1306.29 276.536ZM1306.29 202.964L1267.36 184.87C1293.31 172.801 1319.27 160.732 1345.25 148.683C1371.2 160.752 1397.18 172.822 1423.13 184.87C1397.18 196.94 1371.22 209.009 1345.25 221.058L1306.29 202.964ZM1306.29 129.413L1267.36 111.319C1293.31 99.25 1319.27 87.1807 1345.25 75.1318C1371.2 87.201 1397.18 99.2702 1423.13 111.319C1397.18 123.388 1371.22 135.458 1345.25 147.507L1306.29 129.413ZM1305.03 56.4295L1343.96 74.5232C1318.01 86.5925 1292.05 98.6617 1266.08 110.711C1240.12 98.6414 1214.17 86.5722 1188.19 74.5232C1214.15 62.454 1240.1 50.3848 1266.08 38.3358L1305.03 56.4295ZM1148 19.6539L1186.93 1.56019C1212.89 13.6294 1238.84 25.6986 1264.82 37.7476C1238.86 49.8168 1212.91 61.8861 1186.93 73.935C1160.98 61.8658 1135 49.7965 1109.05 37.7476L1148 19.6539ZM1146.74 56.4295L1185.67 74.5232C1159.72 86.5925 1133.77 98.6617 1107.79 110.711C1081.84 98.6414 1055.86 86.5722 1029.9 74.5232C1055.86 62.454 1081.81 50.3848 1107.79 38.3358L1146.74 56.4295ZM989.74 19.6539L1028.67 1.56019C1054.62 13.6294 1080.6 25.6986 1106.55 37.7476C1080.6 49.8168 1054.65 61.8861 1028.67 73.935C1002.72 61.8658 976.764 49.7965 950.786 37.7476L989.74 19.6539ZM988.481 56.4295L1027.41 74.5232C1001.46 86.5925 975.504 98.6617 949.526 110.711C923.573 98.6414 897.62 86.5722 871.642 74.5232C897.595 62.454 923.548 50.3848 949.526 38.3358L988.481 56.4295ZM831.453 19.6539L870.382 1.56019C896.335 13.6294 922.313 25.6986 948.266 37.7476C922.313 49.8168 896.36 61.8861 870.382 73.935C844.429 61.8658 818.451 49.7965 792.498 37.7476L831.453 19.6539ZM830.193 56.4295L869.122 74.5232C843.169 86.5925 817.216 98.6617 791.238 110.711C765.285 98.6414 739.332 86.5722 713.354 74.5232C739.307 62.454 765.26 50.3848 791.238 38.3358L830.193 56.4295ZM673.19 19.6539L712.119 1.56019C738.072 13.6294 764.025 25.6986 790.003 37.7476C764.05 49.8168 738.097 61.8861 712.119 73.935C686.166 61.8658 660.188 49.7965 634.235 37.7476L673.19 19.6539ZM671.93 56.4295L710.859 74.5232C684.906 86.5925 658.954 98.6617 632.975 110.711C607.022 98.6414 581.069 86.5722 555.091 74.5232C581.044 62.454 606.997 50.3848 632.975 38.3358L671.93 56.4295ZM514.902 19.6336L553.831 1.5399C579.784 13.6091 605.737 25.6784 631.716 37.7273C605.763 49.7965 579.81 61.8658 553.831 73.9147C527.878 61.8455 501.9 49.7763 475.947 37.7273L514.902 19.6336ZM513.642 56.4295L552.572 74.5232C526.619 86.5925 500.666 98.6617 474.687 110.711C448.734 98.6414 422.781 86.5722 396.803 74.5232C422.756 62.454 448.709 50.3848 474.687 38.3358L513.642 56.4295ZM356.639 19.6336L395.569 1.5399C421.522 13.6091 447.475 25.6784 473.453 37.7273C447.5 49.7965 421.547 61.8658 395.569 73.9147C369.616 61.8455 343.663 49.7763 317.685 37.7273L356.639 19.6336ZM355.379 56.4295L394.309 74.5232C368.356 86.5925 342.403 98.6617 316.425 110.711C290.472 98.6414 264.519 86.5722 238.541 74.5232C264.494 62.454 290.447 50.3848 316.425 38.3358L355.379 56.4295ZM198.351 19.6336L237.281 1.5399C263.234 13.6091 289.212 25.6784 315.165 37.7273C289.212 49.7965 263.259 61.8658 237.281 73.9147C211.328 61.8455 185.375 49.7763 159.397 37.7273L198.351 19.6336ZM197.091 56.4295L236.021 74.5232C210.068 86.5925 184.115 98.6617 158.137 110.711C132.184 98.6414 106.206 86.5722 80.2526 74.5232C106.206 62.454 132.159 50.3848 158.137 38.3358L197.091 56.4295ZM40.0885 55.8413L1.13387 37.7273C27.0868 25.6581 53.0398 13.5888 79.018 1.5399C104.971 13.6091 130.949 25.6784 156.902 37.7273C130.949 49.7965 104.996 61.8658 79.018 73.9147L40.0885 55.8413ZM40.0885 129.393L1.15906 111.299C27.112 99.2297 53.065 87.1604 79.0432 75.1115C104.996 87.1807 130.974 99.2499 156.927 111.299C130.974 123.368 105.021 135.437 79.0432 147.486L40.0885 129.393ZM40.0885 202.964L1.15906 184.87C27.112 172.801 53.065 160.732 79.0432 148.683C104.996 160.752 130.949 172.822 156.927 184.87C130.974 196.94 105.021 209.009 79.0432 221.058L40.0885 202.964ZM40.0885 276.536L1.15906 258.422C27.112 246.353 53.065 234.283 79.0432 222.234C104.996 234.304 130.949 246.373 156.927 258.422C130.974 270.491 105.021 282.56 79.0432 294.609L40.0885 276.536ZM40.0885 350.087L1.15906 331.993C27.112 319.924 53.065 307.855 79.0432 295.806C104.996 307.875 130.949 319.944 156.927 331.993C130.974 344.063 105.021 356.132 79.0432 368.181L40.0885 350.087ZM40.0885 423.659L1.15906 405.565C27.112 393.496 53.065 381.427 79.0432 369.378C104.996 381.447 130.949 393.516 156.927 405.565C130.974 417.634 105.021 429.703 79.0432 441.752L40.0885 423.659ZM40.0885 497.21L1.15906 479.116C27.112 467.047 53.065 454.978 79.0432 442.929C104.996 454.998 130.949 467.067 156.927 479.116C130.974 491.185 105.021 503.255 79.0432 515.304L40.0885 497.21ZM40.0885 570.782L1.15906 552.688C27.112 540.619 53.065 528.549 79.0432 516.5C104.996 528.57 130.949 540.639 156.927 552.688C130.974 564.757 105.021 576.826 79.0432 588.875L40.0885 570.782ZM40.1137 644.353L1.18426 626.259C27.1372 614.19 53.0902 602.121 79.0684 590.072C105.021 602.141 131 614.21 156.952 626.259C131 638.329 105.047 650.398 79.0684 662.447L40.1137 644.353ZM40.1137 717.904L1.15906 699.811C27.112 687.742 53.065 675.672 79.0432 663.623C104.996 675.693 130.974 687.762 156.927 699.811C130.974 711.88 105.021 723.949 79.0432 735.998L40.1137 717.904ZM40.1137 791.476L1.18426 773.382C27.1372 761.313 53.0902 749.244 79.0684 737.195C105.021 749.264 131 761.333 156.952 773.382C131 785.452 105.047 797.521 79.0684 809.57L40.1137 791.476ZM117.998 865.027L79.0684 883.121C53.1154 871.052 27.1624 858.983 1.18426 846.934C27.1372 834.864 53.0902 822.795 79.0684 810.746C105.021 822.815 130.974 834.885 156.952 846.934L117.998 865.027ZM119.232 828.252L80.303 810.158C106.256 798.089 132.209 786.019 158.187 773.971C184.14 786.04 210.093 798.109 236.071 810.158C210.118 822.227 184.165 834.296 158.187 846.345L119.232 828.252ZM276.261 865.048L237.331 883.141C211.378 871.072 185.4 859.003 159.447 846.954C185.4 834.885 211.353 822.815 237.331 810.767C263.284 822.836 289.237 834.905 315.215 846.954L276.261 865.048ZM277.52 828.252L238.591 810.158C264.544 798.089 290.497 786.019 316.475 773.971C342.428 786.04 368.406 798.109 394.359 810.158C368.406 822.227 342.453 834.296 316.475 846.345L277.52 828.252ZM434.549 865.048L395.594 883.141C369.641 871.072 343.663 859.003 317.71 846.954C343.663 834.885 369.616 822.815 395.594 810.767C421.547 822.836 447.5 834.905 473.478 846.954L434.549 865.048ZM435.783 828.252L396.854 810.158C422.807 798.089 448.76 786.019 474.738 773.971C500.691 786.04 526.669 798.109 552.622 810.158C526.669 822.227 500.716 834.296 474.738 846.345L435.783 828.252ZM592.811 865.048L553.882 883.141C527.929 871.072 501.951 859.003 475.998 846.954C501.951 834.885 527.904 822.815 553.882 810.767C579.835 822.836 605.788 834.905 631.766 846.954L592.811 865.048ZM594.071 828.252L555.142 810.158C581.095 798.089 607.048 786.019 633.026 773.971C658.979 786.04 684.957 798.109 710.91 810.158C684.957 822.227 659.004 834.296 633.026 846.345L594.071 828.252ZM751.074 865.048L712.145 883.141C686.192 871.072 660.239 859.003 634.26 846.954C660.213 834.885 686.166 822.815 712.145 810.767C738.097 822.836 764.05 834.905 790.029 846.954L751.074 865.048ZM752.334 828.252L713.404 810.158C739.357 798.089 765.31 786.019 791.289 773.971C817.241 786.04 843.194 798.109 869.173 810.158C843.22 822.227 817.267 834.296 791.289 846.345L752.334 828.252ZM909.362 865.048L870.432 883.141C844.479 871.072 818.501 859.003 792.548 846.954C818.501 834.885 844.454 822.815 870.432 810.767C896.385 822.836 922.364 834.905 948.317 846.954L909.362 865.048ZM910.622 828.272L871.692 810.178C897.645 798.109 923.598 786.04 949.576 773.991C975.529 786.06 1001.51 798.129 1027.46 810.178C1001.51 822.247 975.555 834.317 949.576 846.366L910.622 828.272ZM1067.62 865.048L1028.7 883.141C1002.74 871.072 976.764 859.003 950.811 846.954C976.764 834.885 1002.72 822.815 1028.7 810.767C1054.65 822.836 1080.6 834.905 1106.58 846.954L1067.62 865.048ZM1068.88 828.272L1029.96 810.178C1055.91 798.109 1081.86 786.04 1107.84 773.991C1133.79 786.06 1159.77 798.129 1185.72 810.178C1159.77 822.247 1133.82 834.317 1107.84 846.366L1068.88 828.272ZM1225.91 865.048L1186.98 883.141C1161.03 871.072 1135.05 859.003 1109.1 846.954C1135.05 834.885 1161 822.815 1186.98 810.767C1212.94 822.836 1238.91 834.905 1264.87 846.954L1225.91 865.048ZM1227.17 828.272L1188.24 810.178C1214.2 798.109 1240.15 786.04 1266.13 773.991C1292.08 786.06 1318.06 798.129 1344.01 810.178C1318.06 822.247 1292.11 834.317 1266.13 846.366L1227.17 828.272ZM1384.18 865.048L1345.25 883.141C1319.29 871.072 1293.34 859.003 1267.36 846.954C1293.31 834.885 1319.27 822.815 1345.25 810.767C1371.2 822.836 1397.15 834.905 1423.13 846.954L1384.18 865.048ZM1463.32 792.064L1502.25 810.158C1476.3 822.227 1450.34 834.296 1424.36 846.345C1398.41 834.276 1372.46 822.207 1346.48 810.158C1372.43 798.089 1398.39 786.019 1424.36 773.971L1463.32 792.064ZM1463.32 718.513L1502.25 736.607C1476.3 748.676 1450.34 760.745 1424.36 772.794C1398.41 760.725 1372.46 748.656 1346.48 736.607C1372.43 724.537 1398.39 712.468 1424.36 700.419L1463.32 718.513ZM1463.32 644.941L1502.25 663.035C1476.3 675.104 1450.34 687.174 1424.36 699.222C1398.41 687.153 1372.46 675.084 1346.48 663.035C1372.43 650.966 1398.39 638.897 1424.36 626.848L1463.32 644.941ZM1463.32 571.37L1502.25 589.464C1476.3 601.533 1450.34 613.602 1424.36 625.651C1398.41 613.582 1372.46 601.512 1346.48 589.464C1372.43 577.394 1398.39 565.325 1424.36 553.276L1463.32 571.37ZM1463.32 497.819L1502.25 515.912C1476.3 527.981 1450.34 540.051 1424.36 552.1C1398.41 540.03 1372.46 527.961 1346.48 515.912C1372.43 503.843 1398.39 491.774 1424.36 479.725L1463.32 497.819ZM1463.32 424.247L1502.25 442.341C1476.3 454.41 1450.34 466.479 1424.36 478.528C1398.41 466.459 1372.43 454.39 1346.48 442.341C1372.43 430.271 1398.39 418.202 1424.36 406.153L1463.32 424.247ZM1463.32 350.696L1502.25 368.789C1476.3 380.859 1450.34 392.928 1424.36 404.977C1398.41 392.907 1372.43 380.838 1346.48 368.789C1372.43 356.72 1398.39 344.651 1424.36 332.602L1463.32 350.696ZM1463.29 277.124L1502.22 295.218C1476.27 307.287 1450.32 319.356 1424.34 331.405C1398.39 319.336 1372.41 307.267 1346.46 295.218C1372.41 283.148 1398.36 271.079 1424.34 259.03L1463.29 277.124ZM1463.29 203.552L1502.22 221.646C1476.27 233.715 1450.32 245.785 1424.34 257.834C1398.39 245.764 1372.41 233.695 1346.46 221.646C1372.41 209.577 1398.36 197.508 1424.34 185.459L1463.29 203.552ZM1463.29 130.001L1502.22 148.095C1476.27 160.164 1450.32 172.233 1424.34 184.282C1398.39 172.213 1372.41 160.144 1346.46 148.095C1372.41 136.026 1398.36 123.956 1424.34 111.907L1463.29 130.001ZM1463.29 56.4295L1502.22 74.5232C1476.27 86.5925 1450.32 98.6617 1424.34 110.711C1398.39 98.6414 1372.41 86.5722 1346.46 74.5232C1372.41 62.454 1398.36 50.3848 1424.34 38.3358L1463.29 56.4295Z" fill="#2267AC"/>
</svg>
