<svg width="86" height="86" viewBox="0 0 86 86" fill="none" xmlns="http://www.w3.org/2000/svg">
<circle cx="42.8044" cy="42.8005" r="42.3513" fill="#11151C"/>
<path d="M20.4728 48.9045H25.7722V50.5117H18.4964V35.3739H20.4728V48.9045ZM33.0618 50.7072C31.9469 50.7072 30.9334 50.4538 30.0212 49.947C29.1235 49.4403 28.414 48.7236 27.8928 47.7969C27.386 46.8558 27.1326 45.7698 27.1326 44.5391C27.1326 43.3229 27.3932 42.2514 27.9145 41.3248C28.4502 40.3836 29.1742 39.6669 30.0864 39.1746C30.9985 38.6678 32.0193 38.4145 33.1487 38.4145C34.278 38.4145 35.2988 38.6678 36.211 39.1746C37.1232 39.6669 37.8399 40.3764 38.3611 41.303C38.8969 42.2297 39.1647 43.3084 39.1647 44.5391C39.1647 45.7698 38.8896 46.8558 38.3394 47.7969C37.8037 48.7236 37.0725 49.4403 36.1458 49.947C35.2192 50.4538 34.1912 50.7072 33.0618 50.7072ZM33.0618 48.9697C33.7713 48.9697 34.4373 48.8032 35.0599 48.4702C35.6825 48.1372 36.182 47.6376 36.5585 46.9716C36.9494 46.3055 37.1449 45.4947 37.1449 44.5391C37.1449 43.5835 36.9567 42.7727 36.5802 42.1066C36.2038 41.4406 35.7115 40.9483 35.1033 40.6298C34.4952 40.2967 33.8364 40.1302 33.127 40.1302C32.403 40.1302 31.737 40.2967 31.1288 40.6298C30.5352 40.9483 30.0574 41.4406 29.6954 42.1066C29.3334 42.7727 29.1525 43.5835 29.1525 44.5391C29.1525 45.5092 29.3262 46.3273 29.6737 46.9933C30.0357 47.6593 30.5135 48.1589 31.1071 48.4919C31.7008 48.8104 32.3523 48.9697 33.0618 48.9697ZM46.6717 38.4145C47.6997 38.4145 48.5974 38.6389 49.3648 39.0877C50.1467 39.5366 50.7259 40.1013 51.1023 40.7818V38.6099H53.1004V50.7723C53.1004 51.8583 52.8688 52.8211 52.4054 53.6609C51.9421 54.5152 51.2761 55.1812 50.4073 55.659C49.5531 56.1368 48.554 56.3757 47.4102 56.3757C45.8464 56.3757 44.5433 56.0065 43.5008 55.2681C42.4583 54.5297 41.843 53.5234 41.6547 52.2492H43.6094C43.8266 52.9732 44.2754 53.5523 44.956 53.9867C45.6365 54.4355 46.4545 54.66 47.4102 54.66C48.4961 54.66 49.3793 54.3197 50.0598 53.6392C50.7548 52.9587 51.1023 52.0031 51.1023 50.7723V48.2747C50.7114 48.9697 50.1322 49.5489 49.3648 50.0122C48.5974 50.4755 47.6997 50.7072 46.6717 50.7072C45.6148 50.7072 44.6519 50.4466 43.7832 49.9253C42.9289 49.4041 42.2556 48.6729 41.7633 47.7317C41.271 46.7906 41.0249 45.7191 41.0249 44.5174C41.0249 43.3011 41.271 42.2369 41.7633 41.3248C42.2556 40.3981 42.9289 39.6814 43.7832 39.1746C44.6519 38.6678 45.6148 38.4145 46.6717 38.4145ZM51.1023 44.5391C51.1023 43.6414 50.9213 42.8595 50.5594 42.1935C50.1974 41.5275 49.7051 41.0207 49.0825 40.6732C48.4744 40.3112 47.8011 40.1302 47.0627 40.1302C46.3242 40.1302 45.651 40.304 45.0428 40.6515C44.4347 40.999 43.9497 41.5057 43.5877 42.1718C43.2257 42.8378 43.0447 43.6197 43.0447 44.5174C43.0447 45.4296 43.2257 46.2259 43.5877 46.9064C43.9497 47.5725 44.4347 48.0865 45.0428 48.4485C45.651 48.7959 46.3242 48.9697 47.0627 48.9697C47.8011 48.9697 48.4744 48.7959 49.0825 48.4485C49.7051 48.0865 50.1974 47.5725 50.5594 46.9064C50.9213 46.2259 51.1023 45.4368 51.1023 44.5391ZM61.6311 50.7072C60.5162 50.7072 59.5027 50.4538 58.5905 49.947C57.6928 49.4403 56.9833 48.7236 56.4621 47.7969C55.9553 46.8558 55.7019 45.7698 55.7019 44.5391C55.7019 43.3229 55.9625 42.2514 56.4838 41.3248C57.0195 40.3836 57.7435 39.6669 58.6556 39.1746C59.5678 38.6678 60.5886 38.4145 61.718 38.4145C62.8473 38.4145 63.8681 38.6678 64.7803 39.1746C65.6925 39.6669 66.4092 40.3764 66.9304 41.303C67.4662 42.2297 67.734 43.3084 67.734 44.5391C67.734 45.7698 67.4589 46.8558 66.9087 47.7969C66.373 48.7236 65.6418 49.4403 64.7151 49.947C63.7885 50.4538 62.7605 50.7072 61.6311 50.7072ZM61.6311 48.9697C62.3406 48.9697 63.0066 48.8032 63.6292 48.4702C64.2518 48.1372 64.7513 47.6376 65.1278 46.9716C65.5187 46.3055 65.7142 45.4947 65.7142 44.5391C65.7142 43.5835 65.526 42.7727 65.1495 42.1066C64.773 41.4406 64.2808 40.9483 63.6726 40.6298C63.0645 40.2967 62.4057 40.1302 61.6962 40.1302C60.9723 40.1302 60.3063 40.2967 59.6981 40.6298C59.1045 40.9483 58.6267 41.4406 58.2647 42.1066C57.9027 42.7727 57.7217 43.5835 57.7217 44.5391C57.7217 45.5092 57.8955 46.3273 58.243 46.9933C58.605 47.6593 59.0828 48.1589 59.6764 48.4919C60.2701 48.8104 60.9216 48.9697 61.6311 48.9697Z" fill="white"/>
</svg>
