<svg width="240" height="578" viewBox="0 0 240 578" fill="none" xmlns="http://www.w3.org/2000/svg">
<g opacity="0.8">
<path d="M348.293 14.125L193.882 39.6179L68.7659 121.24L5.81641 292.087L81.5124 488.427L243.415 571.614L387.986 549.923L522.159 464.499L586.562 290.633L511.649 97.3123L348.293 14.125Z" stroke="#2267AC" stroke-width="0.961574" stroke-miterlimit="10"/>
<path d="M243.415 571.614L188.739 516.155L182.701 337.817L226.196 158.696L193.882 39.6172L67.3124 200.737L5.81641 292.086L64.2935 385.784L188.739 516.155L387.986 549.922L504.158 394.058L511.649 208.899V97.3116" stroke="#2267AC" stroke-width="0.961574" stroke-miterlimit="10"/>
<path d="M68.7654 121.242L67.3119 200.74L64.293 385.787L81.5119 488.429" stroke="#2267AC" stroke-width="0.961574" stroke-miterlimit="10"/>
<path d="M193.434 39.6172L381.723 78.0801L511.647 97.3116" stroke="#2267AC" stroke-width="0.961574" stroke-miterlimit="10"/>
<path d="M67.4219 201.409L225.411 158.474L381.722 78.082L511.199 208.454L586.113 290.411L504.155 394.06" stroke="#2267AC" stroke-width="0.961574" stroke-miterlimit="10"/>
<path d="M66.8633 201.41L181.917 337.819L336.328 439.008" stroke="#2267AC" stroke-width="0.961574" stroke-miterlimit="10"/>
<path d="M522.159 465.172L504.157 393.278L376.805 261.341L226.195 158.027" stroke="#2267AC" stroke-width="0.961574" stroke-miterlimit="10"/>
<path d="M511.646 209.684L377.473 262.123L181.916 337.819L63.5078 386.568" stroke="#2267AC" stroke-width="0.961574" stroke-miterlimit="10"/>
<path d="M81.5117 488.431L187.956 515.377L335.546 439.01L504.157 394.062" stroke="#2267AC" stroke-width="0.961574" stroke-miterlimit="10"/>
<path d="M194.554 515.823C194.576 517.004 194.245 518.165 193.602 519.157C192.959 520.148 192.035 520.925 190.948 521.387C189.861 521.85 188.66 521.976 187.5 521.751C186.34 521.526 185.274 520.96 184.439 520.124C183.603 519.289 183.037 518.223 182.812 517.063C182.587 515.903 182.713 514.702 183.176 513.615C183.638 512.528 184.415 511.603 185.406 510.961C186.398 510.318 187.559 509.987 188.74 510.009C190.282 510.009 191.761 510.621 192.851 511.712C193.941 512.802 194.554 514.281 194.554 515.823Z" fill="#2267AC"/>
<path d="M247.775 571.28C247.775 572.053 247.621 572.818 247.322 573.531C247.023 574.244 246.585 574.89 246.033 575.431C245.481 575.973 244.827 576.399 244.109 576.684C243.39 576.97 242.622 577.109 241.849 577.094C240.307 577.094 238.828 576.482 237.738 575.391C236.648 574.301 236.035 572.822 236.035 571.28C236.035 569.738 236.648 568.259 237.738 567.169C238.828 566.078 240.307 565.466 241.849 565.466C242.622 565.451 243.39 565.59 244.109 565.876C244.827 566.161 245.481 566.587 246.033 567.129C246.585 567.67 247.023 568.316 247.322 569.029C247.621 569.742 247.775 570.507 247.775 571.28Z" fill="#2267AC"/>
<path d="M86.2065 489.213C86.2065 490.755 85.5939 492.233 84.5035 493.324C83.4132 494.414 81.9343 495.027 80.3923 495.027C78.8503 495.027 77.3714 494.414 76.2811 493.324C75.1907 492.233 74.5781 490.755 74.5781 489.213C74.5781 487.671 75.1907 486.192 76.2811 485.101C77.3714 484.011 78.8503 483.398 80.3923 483.398C81.9343 483.398 83.4132 484.011 84.5035 485.101C85.5939 486.192 86.2065 487.671 86.2065 489.213Z" fill="#2267AC"/>
<path d="M70.1077 386.231C70.0857 387.376 69.7261 388.489 69.074 389.43C68.4219 390.371 67.5063 391.099 66.4422 391.522C65.378 391.945 64.2127 392.044 63.0923 391.807C61.9719 391.571 60.9464 391.008 60.1444 390.191C59.3425 389.373 58.7997 388.337 58.5843 387.213C58.3689 386.088 58.4903 384.925 58.9335 383.869C59.3766 382.813 60.1217 381.911 61.0753 381.277C62.0289 380.643 63.1484 380.305 64.2936 380.305C65.0666 380.305 65.8319 380.459 66.5447 380.758C67.2575 381.057 67.9035 381.495 68.4448 382.047C68.9862 382.599 69.4121 383.253 69.6977 383.971C69.9832 384.69 70.1226 385.458 70.1077 386.231Z" fill="#2267AC"/>
<path d="M11.7412 292.089C11.7412 293.66 11.1169 295.168 10.0055 296.279C8.8942 297.39 7.38691 298.015 5.81524 298.015C5.04221 298.015 4.27692 297.861 3.56413 297.562C2.85133 297.262 2.20534 296.824 1.66396 296.272C1.12258 295.721 0.696671 295.066 0.411145 294.348C0.125618 293.63 -0.0137907 292.862 0.00107527 292.089C0.00107527 290.547 0.613633 289.068 1.704 287.977C2.79437 286.887 4.27323 286.275 5.81524 286.275C6.58812 286.26 7.35621 286.399 8.07458 286.685C8.79294 286.97 9.44716 287.396 9.99895 287.937C10.5507 288.479 10.989 289.125 11.2882 289.838C11.5873 290.55 11.7414 291.316 11.7412 292.089Z" fill="#2267AC"/>
<path d="M73.5711 201.408C73.5711 202.98 72.9468 204.487 71.8354 205.598C70.7241 206.71 69.2168 207.334 67.6451 207.334C66.2277 207.138 64.929 206.435 63.989 205.356C63.049 204.277 62.5312 202.895 62.5312 201.464C62.5312 200.033 63.049 198.65 63.989 197.571C64.929 196.492 66.2277 195.79 67.6451 195.594C69.1976 195.593 70.6882 196.202 71.7964 197.29C72.9046 198.377 73.5418 199.856 73.5711 201.408Z" fill="#2267AC"/>
<path d="M74.2441 121.241C74.2589 122.014 74.1195 122.782 73.834 123.5C73.5484 124.219 73.1226 124.873 72.5812 125.425C72.0398 125.977 71.3938 126.415 70.681 126.714C69.9682 127.013 69.2029 127.167 68.4299 127.167C66.8582 127.167 65.3509 126.543 64.2396 125.431C63.1283 124.32 62.5039 122.813 62.5039 121.241C62.5038 120.468 62.6578 119.703 62.9569 118.99C63.2561 118.277 63.6944 117.631 64.2462 117.09C64.798 116.548 65.4522 116.122 66.1705 115.837C66.8889 115.551 67.657 115.412 68.4299 115.427C69.9719 115.427 71.4508 116.039 72.5411 117.13C73.6315 118.22 74.2441 119.699 74.2441 121.241Z" fill="#2267AC"/>
<path d="M199.808 39.6213C199.808 40.3943 199.654 41.1596 199.355 41.8724C199.055 42.5852 198.617 43.2312 198.065 43.7726C197.514 44.314 196.859 44.7399 196.141 45.0254C195.423 45.3109 194.655 45.4503 193.882 45.4355C192.34 45.4355 190.861 44.8229 189.77 43.7325C188.68 42.6422 188.067 41.1633 188.067 39.6213C188.053 38.8484 188.192 38.0803 188.478 37.3619C188.763 36.6436 189.189 35.9894 189.73 35.4376C190.272 34.8858 190.918 34.4475 191.631 34.1483C192.343 33.8492 193.109 33.6952 193.882 33.6953C195.453 33.6953 196.961 34.3197 198.072 35.431C199.183 36.5423 199.808 38.0496 199.808 39.6213Z" fill="#2267AC"/>
<path d="M232.01 158.362C232.025 159.135 231.885 159.903 231.6 160.621C231.314 161.34 230.888 161.994 230.347 162.546C229.805 163.098 229.159 163.536 228.447 163.835C227.734 164.134 226.969 164.288 226.196 164.288C224.624 164.288 223.117 163.664 222.005 162.552C220.894 161.441 220.27 159.934 220.27 158.362C220.269 157.589 220.423 156.824 220.723 156.111C221.022 155.398 221.46 154.752 222.012 154.211C222.564 153.669 223.218 153.244 223.936 152.958C224.655 152.673 225.423 152.533 226.196 152.548C227.738 152.548 229.216 153.161 230.307 154.251C231.397 155.341 232.01 156.82 232.01 158.362Z" fill="#2267AC"/>
<path d="M188.514 337.706C188.528 338.479 188.389 339.247 188.104 339.965C187.818 340.684 187.392 341.338 186.851 341.89C186.309 342.441 185.663 342.88 184.951 343.179C184.238 343.478 183.472 343.632 182.699 343.632C181.128 343.632 179.62 343.008 178.509 341.896C177.398 340.785 176.773 339.278 176.773 337.706C176.773 336.933 176.927 336.168 177.226 335.455C177.526 334.742 177.964 334.096 178.516 333.555C179.068 333.013 179.722 332.587 180.44 332.302C181.158 332.016 181.927 331.877 182.699 331.892C184.241 331.892 185.72 332.504 186.811 333.595C187.901 334.685 188.514 336.164 188.514 337.706Z" fill="#2267AC"/>
</g>
</svg>
