<svg width="291" height="578" viewBox="0 0 291 578" fill="none" xmlns="http://www.w3.org/2000/svg">
<g opacity="0.8">
<path d="M51.2932 14.125L-103.118 39.6179L-228.234 121.24L-291.184 292.087L-215.488 488.427L-53.5854 571.614L90.9861 549.923L225.159 464.499L289.562 290.633L214.649 97.3123L51.2932 14.125Z" stroke="#2267AC" stroke-width="0.961574" stroke-miterlimit="10"/>
<path d="M-53.5854 571.614L-108.261 516.155L-114.299 337.817L-70.8043 158.696L-103.118 39.6172L-229.688 200.737L-291.184 292.086L-232.706 385.784L-108.261 516.155L90.9861 549.922L207.158 394.058L214.649 208.899V97.3116" stroke="#2267AC" stroke-width="0.961574" stroke-miterlimit="10"/>
<path d="M51.2905 14.125L84.2747 77.7454L80.4731 262.122L40.1094 439.006L90.9833 549.923" stroke="#2267AC" stroke-width="0.961574" stroke-miterlimit="10"/>
<path d="M-103.566 39.6172L84.7232 78.0801L214.647 97.3116" stroke="#2267AC" stroke-width="0.961574" stroke-miterlimit="10"/>
<path d="M-229.578 201.409L-71.5893 158.474L84.7223 78.082L214.199 208.454L289.113 290.411L207.155 394.06" stroke="#2267AC" stroke-width="0.961574" stroke-miterlimit="10"/>
<path d="M-230.137 201.41L-115.083 337.819L39.3276 439.008" stroke="#2267AC" stroke-width="0.961574" stroke-miterlimit="10"/>
<path d="M225.159 465.172L207.157 393.278L79.8046 261.341L-70.8047 158.027" stroke="#2267AC" stroke-width="0.961574" stroke-miterlimit="10"/>
<path d="M214.646 209.684L80.4728 262.123L-115.084 337.819L-233.492 386.568" stroke="#2267AC" stroke-width="0.961574" stroke-miterlimit="10"/>
<path d="M-215.488 488.431L-109.044 515.377L38.5461 439.01L207.157 394.062" stroke="#2267AC" stroke-width="0.961574" stroke-miterlimit="10"/>
<path d="M220.237 97.7615C220.041 99.179 219.339 100.478 218.26 101.418C217.181 102.358 215.798 102.875 214.367 102.875C212.936 102.875 211.554 102.358 210.475 101.418C209.396 100.478 208.693 99.179 208.497 97.7615C208.381 96.9227 208.446 96.0687 208.688 95.2571C208.93 94.4456 209.343 93.6953 209.899 93.0568C210.455 92.4183 211.142 91.9064 211.913 91.5557C212.684 91.2049 213.521 91.0234 214.367 91.0234C215.214 91.0234 216.051 91.2049 216.822 91.5557C217.593 91.9064 218.279 92.4183 218.836 93.0568C219.392 93.6953 219.805 94.4456 220.047 95.2571C220.288 96.0687 220.353 96.9227 220.237 97.7615Z" fill="#2267AC"/>
<path d="M220.575 208.9C220.575 210.472 219.951 211.979 218.839 213.09C217.728 214.202 216.221 214.826 214.649 214.826C213.232 214.63 211.933 213.928 210.993 212.849C210.053 211.77 209.535 210.387 209.535 208.956C209.535 207.525 210.053 206.142 210.993 205.063C211.933 203.984 213.232 203.282 214.649 203.086C216.202 203.086 217.692 203.695 218.8 204.782C219.909 205.869 220.546 207.348 220.575 208.9Z" fill="#2267AC"/>
<path d="M86.4014 262.124C86.4014 263.696 85.7771 265.203 84.6657 266.314C83.5544 267.425 82.0471 268.05 80.4754 268.05C79.7024 268.05 78.9371 267.896 78.2243 267.597C77.5115 267.298 76.8655 266.859 76.3241 266.308C75.7827 265.756 75.3568 265.102 75.0713 264.383C74.7858 263.665 74.6464 262.897 74.6612 262.124C74.6612 260.582 75.2738 259.103 76.3642 258.013C77.4546 256.922 78.9334 256.31 80.4754 256.31C81.2483 256.295 82.0164 256.434 82.7348 256.72C83.4531 257.005 84.1073 257.431 84.6591 257.973C85.2109 258.514 85.6492 259.16 85.9484 259.873C86.2475 260.586 86.4015 261.351 86.4014 262.124Z" fill="#2267AC"/>
<path d="M213.081 393.276C213.081 394.848 212.457 396.355 211.345 397.466C210.234 398.578 208.727 399.202 207.155 399.202C206.382 399.202 205.617 399.048 204.904 398.749C204.191 398.45 203.545 398.012 203.004 397.46C202.462 396.908 202.037 396.254 201.751 395.535C201.465 394.817 201.326 394.049 201.341 393.276C201.341 391.734 201.954 390.255 203.044 389.165C204.134 388.075 205.613 387.462 207.155 387.462C207.928 387.447 208.696 387.587 209.414 387.872C210.133 388.158 210.787 388.583 211.339 389.125C211.891 389.666 212.329 390.312 212.628 391.025C212.927 391.738 213.081 392.503 213.081 393.276Z" fill="#2267AC"/>
<path d="M230.972 464.502C230.972 466.044 230.36 467.523 229.269 468.613C228.179 469.703 226.7 470.316 225.158 470.316C223.616 470.316 222.137 469.703 221.047 468.613C219.956 467.523 219.344 466.044 219.344 464.502C219.344 463.738 219.494 462.982 219.786 462.277C220.079 461.571 220.507 460.93 221.047 460.39C221.587 459.85 222.227 459.422 222.933 459.13C223.638 458.838 224.394 458.687 225.158 458.688C225.921 458.687 226.677 458.838 227.383 459.13C228.088 459.422 228.729 459.85 229.269 460.39C229.809 460.93 230.237 461.571 230.529 462.277C230.822 462.982 230.972 463.738 230.972 464.502Z" fill="#2267AC"/>
<path d="M96.9131 549.59C96.9132 550.363 96.7592 551.128 96.4601 551.841C96.1609 552.554 95.7226 553.2 95.1708 553.741C94.619 554.283 93.9648 554.709 93.2465 554.994C92.5281 555.28 91.76 555.419 90.9871 555.404C90.2236 555.404 89.4675 555.254 88.7621 554.962C88.0567 554.669 87.4158 554.241 86.8759 553.701C86.336 553.161 85.9077 552.52 85.6155 551.815C85.3233 551.11 85.173 550.354 85.173 549.59C85.1581 548.817 85.2975 548.049 85.583 547.331C85.8685 546.612 86.2944 545.958 86.8358 545.406C87.3772 544.855 88.0232 544.416 88.736 544.117C89.4488 543.818 90.2141 543.664 90.9871 543.664C91.7653 543.664 92.5359 543.817 93.2549 544.115C93.9739 544.413 94.6271 544.849 95.1774 545.4C95.7277 545.95 96.1642 546.603 96.462 547.322C96.7598 548.041 96.9131 548.812 96.9131 549.59Z" fill="#2267AC"/>
<path d="M45.925 438.227C46.041 439.066 45.9759 439.92 45.7341 440.731C45.4923 441.543 45.0793 442.293 44.5231 442.932C43.9668 443.57 43.2802 444.082 42.5094 444.433C41.7387 444.784 40.9017 444.965 40.0549 444.965C39.2081 444.965 38.3711 444.784 37.6003 444.433C36.8296 444.082 36.1429 443.57 35.5867 442.932C35.0304 442.293 34.6175 441.543 34.3757 440.731C34.1338 439.92 34.0688 439.066 34.1848 438.227C34.3809 436.81 35.0833 435.511 36.1623 434.571C37.2412 433.631 38.6239 433.113 40.0549 433.113C41.4859 433.113 42.8685 433.631 43.9475 434.571C45.0265 435.511 45.7289 436.81 45.925 438.227Z" fill="#2267AC"/>
<path d="M90.9862 78.6434C90.9864 79.4164 90.8324 80.1817 90.5332 80.8945C90.2341 81.6073 89.7958 82.2533 89.244 82.7946C88.6922 83.336 88.038 83.7619 87.3196 84.0475C86.6012 84.333 85.8332 84.4724 85.0603 84.4575C83.5183 84.4575 82.0394 83.845 80.949 82.7546C79.8587 81.6642 79.2461 80.1854 79.2461 78.6434C79.2461 77.1014 79.8587 75.6225 80.949 74.5321C82.0394 73.4418 83.5183 72.8292 85.0603 72.8292C85.8332 72.8143 86.6012 72.9537 87.3196 73.2393C88.038 73.5248 88.6922 73.9507 89.244 74.4921C89.7958 75.0335 90.2341 75.6795 90.5332 76.3923C90.8324 77.105 90.9864 77.8703 90.9862 78.6434Z" fill="#2267AC"/>
<path d="M57.1049 14.1267C57.1049 15.6687 56.4923 17.1475 55.402 18.2379C54.3116 19.3283 52.8327 19.9408 51.2907 19.9408C49.7487 19.9408 48.2699 19.3283 47.1795 18.2379C46.0891 17.1475 45.4766 15.6687 45.4766 14.1267C45.4766 12.5847 46.0891 11.1058 47.1795 10.0154C48.2699 8.92506 49.7487 8.3125 51.2907 8.3125C52.8327 8.3125 54.3116 8.92506 55.402 10.0154C56.4923 11.1058 57.1049 12.5847 57.1049 14.1267Z" fill="#2267AC"/>
</g>
</svg>
